/* XPM */
static char *b0082558f3194801b5eb83a213e0f7e9jjfIYwoH1Lu1Cydg[] = {
/* columns rows colors chars-per-pixel */
"46 39 256 2 ",
"   c #47704C",
".  c #F1DFA7",
"X  c #F7F1E2",
"o  c #F5E2B4",
"O  c None",
"+  c #F2E09B",
"@  c #FAEFD8",
"#  c #E8E7E0",
"$  c #F2EFE8",
"%  c #F1EADB",
"&  c #FAEEC7",
"*  c #D2A131",
"=  c #EBD387",
"-  c #BAA560",
";  c #D68E2C",
":  c #CB8C19",
">  c #DD942C",
",  c #FCDB58",
"<  c #EFE7CA",
"1  c #F2EBDA",
"2  c #F7EADA",
"3  c #E5C776",
"4  c #CFB24F",
"5  c #ECD79C",
"6  c #EEDA93",
"7  c #DFCC82",
"8  c #B29653",
"9  c #F6E885",
"0  c #F1BB45",
"q  c #EAD499",
"w  c #EAD582",
"e  c #EED682",
"r  c #E9B138",
"t  c #BBA785",
"y  c #EEDCB3",
"u  c #FBEACE",
"i  c #F5E4C3",
"p  c #DAB03B",
"a  c #E1C553",
"s  c #FCEEA2",
"d  c #F2DF96",
"f  c #ECDFC5",
"g  c #E6CD87",
"h  c #E3CA7B",
"j  c #BF8D29",
"k  c #E2AD43",
"l  c #DA9D3B",
"z  c #E6D08D",
"x  c #D6B889",
"c  c #FBE6CA",
"v  c #C18820",
"b  c #DECEAE",
"n  c #EEE3AA",
"m  c #D7A853",
"M  c #DCBC79",
"N  c #F0D8B2",
"B  c #F7E3B5",
"V  c #E5CF9D",
"C  c #C7B89A",
"Z  c #ECD482",
"A  c #D3BD85",
"S  c #F7EAD6",
"D  c #E0BC49",
"F  c #C6B294",
"G  c #DECB75",
"H  c #D2B274",
"J  c #DEC876",
"K  c #EFE1CB",
"L  c #FDE49A",
"P  c #DCCA9B",
"I  c #FDF0D3",
"U  c #CBAC67",
"Y  c #E5D9BB",
"T  c #E8C779",
"R  c #EDC86E",
"E  c #F1DF96",
"W  c #CEC2A4",
"Q  c #E8BC7B",
"!  c #D4C190",
"~  c #EBD487",
"^  c #E5B267",
"/  c #F4E2C2",
"(  c #E3CC6E",
")  c #E2CE6D",
"_  c #F3D77B",
"`  c #F6DF91",
"'  c #E3C49E",
"]  c #CFC09F",
"[  c #ECD0B3",
"{  c #B4A351",
"}  c #D98F1F",
"|  c #E49820",
" . c #E09823",
".. c #E39E22",
"X. c #F5B930",
"o. c #EFB12A",
"O. c #F7B72B",
"+. c #FAC432",
"@. c #EBA627",
"#. c #E79F20",
"$. c #DF981E",
"%. c #EAA421",
"&. c #F6C133",
"*. c #F7C238",
"=. c #FAC93C",
"-. c #DB951D",
";. c #F4B12A",
":. c #DC8C22",
">. c #E19320",
",. c #DC9124",
"<. c #DA8E1C",
"1. c #F4BB37",
"2. c #FFDA50",
"3. c #D88B1D",
"4. c #EDAC28",
"5. c #F2B42F",
"6. c #D78D20",
"7. c #D58C1D",
"8. c #F3AF31",
"9. c #F0A92C",
"0. c #FACD40",
"q. c #F4BC2D",
"w. c #FED142",
"e. c #EAC141",
"r. c #FFD748",
"t. c #FDF4C4",
"y. c #F2AE26",
"u. c #DC9320",
"i. c #E9A026",
"p. c #EBAA2E",
"a. c #F6B427",
"s. c #FCC539",
"d. c #FDC131",
"f. c #FFDE58",
"g. c #FFF3B8",
"h. c #DAC468",
"j. c #FFF9BE",
"k. c #FFF1AF",
"l. c #FFFBC5",
"z. c #FFD048",
"x. c #FCEBAF",
"c. c #EFAA25",
"v. c #DF911E",
"b. c #D98B23",
"n. c #FBD246",
"m. c #E69E24",
"M. c #DF8E23",
"N. c #E7A427",
"B. c #F8C938",
"V. c #FFE86E",
"C. c #EBA921",
"Z. c #E19D29",
"A. c #F2C442",
"S. c #F6CE41",
"D. c #FEE16C",
"F. c #F5CD4D",
"G. c #FED45B",
"H. c #FCD24B",
"J. c #FED540",
"K. c #D7C154",
"L. c #E59C1F",
"P. c #FABE31",
"I. c #D8911A",
"U. c #D88E25",
"Y. c #F9BC37",
"T. c #E5A921",
"R. c #F0B72F",
"E. c #FFE363",
"W. c #D6921F",
"Q. c #D68A18",
"!. c #FFCC38",
"~. c #DE9F27",
"^. c #D1881E",
"/. c #C08B36",
"(. c #E5AE2B",
"). c #E8B93C",
"_. c #EFCA3D",
"`. c #FEDA5D",
"'. c #FECB46",
"]. c #FFF6AF",
"[. c #FFF6BB",
"{. c #C6B373",
"}. c #FDE186",
"|. c #C1AF74",
" X c #FDE89F",
".X c #EEAE2D",
"XX c #F9BC2B",
"oX c #F2C536",
"OX c #DF9528",
"+X c #E5A030",
"@X c #F8C73A",
"#X c #F9D753",
"$X c #DB9C1F",
"%X c #FFF077",
"&X c #FFF088",
"*X c #CC972B",
"=X c #D49624",
"-X c #E3A92D",
";X c #F4D657",
":X c #FEC434",
">X c #EEBF38",
",X c #FFC540",
"<X c #CEA93F",
"1X c #EDCF53",
"2X c #D9BB6A",
"3X c #FECC3D",
"4X c #D0BB56",
"5X c #D7B949",
"6X c #D0B03D",
"7X c #FAD340",
"8X c #F9D972",
"9X c #E8B946",
"0X c #F9D85E",
"qX c #FEECAA",
"wX c #FEE892",
"eX c #FBD74E",
"rX c #DB9924",
"tX c #E49728",
"yX c #E5A632",
"uX c #C79236",
"iX c #CC9125",
"pX c #E4B236",
"aX c #FDE078",
"sX c #CDA251",
"dX c #F0C34A",
"fX c #FFE784",
"gX c #D4BB7F",
"hX c #FED352",
"jX c #C5AF7A",
"kX c #C19948",
"lX c #EFD56D",
"zX c #FCF1BD",
"xX c #CA983B",
"cX c #FFEA7D",
"vX c #ECB334",
"bX c #DFA420",
"nX c #CE9C45",
"mX c #CF911E",
"MX c #FFE875",
"NX c #C99D39",
"BX c #FBD86A",
"VX c #BFA96E",
"CX c #DFC15C",
"ZX c #BA9139",
"AX c #E4CE5E",
"SX c #CCBC6C",
"DX c #F3E19D",
"FX c #E1CB6C",
"GX c #E6D37B",
"HX c #F8DE88",
"JX c #CABB86",
"KX c #D3A56A",
"LX c #FFDC71",
"PX c #B7966D",
"IX c #FFEC97",
"UX c #EDCE5B",
/* pixels */
"                          $ %       % + 9 = 9 9 w 9 6       $                               ",
"                      # $     & 6 5 3 FXh.K.K.K.K.a AXe = &   %                             ",
"                    $     . V G h.CXUX0X0XO O G.F.e.9Xp 5X3 +   % #                         ",
"                  $   $ n 7 h.lXO O f.2.r.H.z.z.z.z.z.,X).p 4 +   # #                       ",
"                $   o e 4XAXO , 2.r.7XJ.J.7X0.3X!.:Xd.!.s.@XpX<X= #   $                     ",
"              %   + G 5X;Xf.eX7X7Xr.S._._._._.oX&.+.d.XXO.P.1.0 NXe &   $                   ",
"            $   + ) 5X, n.n.w.w.S.e._.1X;X;X;XF.A.>XR.q.d.;.4.8.0 xX3 o   %                 ",
"          %   y ( 6XeX0.=.0.S.e.dXO V.%X%X%XV.E.f.z.*.R.T.o.8.9.+Xk xXT .   $               ",
"        $   + _ 6XH.@XB.=.A.e.BX&X&X&XcXV.E.f.2.r.w.3X,X.XbXT.N.+X+Xl *XR .   $             ",
"      $ # o ` 6XA.s.+.@X>Xe.D.cXfX&XaXD.O 2.r.w.3X=.s.,XY.o.T.$XZ.tX,.: * 3 & $ #           ",
"      $   5 h.p '.X.s.>Xe.`.%XMXV.D.0X, eXn.0.=.@X*.&.Y.Y.X.T.$X-.OXU.rXj sX5   %           ",
"    #   & ~ <XdX1.X.1.pXG.V.E.O O #X#Xn.0.=.*.*.&.1.X.5.o.o.4...I.} ,.W.iXj M @   $         ",
"    $   < CXp 1.5.X.(.e.V.E.#X2.eXS.B.B.+.P.P.X.X.R.5.o.4.@.@.#.I.Q.} ^.=Xv sXV   %         ",
"    $   E <Xr .X;.4.(.G.`.#XH.n.S.B.+.+.P.XXO.O.;.o.4.C.@.i.i.m.-.Q.7.,.6.mX/.x 2   #       ",
"    %   h * p.9.9...vXf.S.n.S.oXoXq.d.XXO.a.;.y.c.C.%...m.| | | v.7.} <.Q.$.v KXc   $       ",
"    %   = *Xp.i.i.~.1.z.0.oX@X*.&.P.o.;.;.y.c.c.%.#.L. . .>.>.>.3.7.u.<.| | : kXi   $       ",
"    %   h *X+XOXZ.=XA.3X+.&.&.X.X.5..X4.c.%.%.#.L.| |  .,.:.M.Q.} ^.OXL.| i.> /.N X   #     ",
"    %   w uX> OX> =XA.+.XXO.X.5.8..X@.@.N.#.L.L.| >.>.,.,.:.M.3.6.7. .#.%.9.Z.uXq 1   $     ",
"    %   w uX; > U.*X0 X.a.;.;.9.@.@.N.....$.$.$.v.M.M.6.6.3.:.3.} W.Z.c.y.8.yXnXz @   $     ",
"    $   6 /.; > U.iX).5.y.c.9.@.i.m...$.-.-.-.u.:.:.:.7.7.} ,.u.Z.=X-XO.a.X.r m q <   %     ",
"    %   6 /.; b.6.: pX.X@.N.@.m.| | $.-.-.W.} } 3.b.:.} I. .m...8.$XR.q.q.*.9X2XB <   $     ",
"    %   + /.; b.} mX-Xp.N...m.| >.>.v.u.} 6.6.7.3.<.<.$.$.N.@.4.5.bX*.&.&.=.9X2XB 1   $     ",
"    $   . nX^.M.v.W.~.yX~.rX .>.v.v.M.:.b.b.U.,.u.$.L.%.@.8.8.Y.o.(.3X=.=.0.D M / X   #     ",
"    $   . m ^.tX>.-.$XyXrXW.-.<.<.3.3.b.b.U.,. .L.%.c.y.X.P.Y.'.(.>Xr.n.n.S.5XgXN $ # #     ",
"    $   o ^ iX..$...m.9.tX<.<.<.3.7.6.} u. .m.@.y.a.O.d.q.!.w.dXk `.#X#Xf.1X4 P u   %       ",
"      # % Q l ~.C.%.%.9.i. .} ^.} OX}  ...N.4.o.O.P.:X+.J.J.F.<X8X8XD.D.MX4X- I   $         ",
"      %   = sX* o.C.a.o.1.bX: W.OXu.N.@..XR.q.&.s.,X'.J.r.0X6XlX}.HX}.fX}.8 ' 2 $ $         ",
"      $   o H NXr O.a.q.*.1.-X~.Z.p.8.5.q.&.+.=.0.H.hXf.1X4 GXwXwX XL IXU PXf   %           ",
"        $   5 kX* ,Xd.+.*.=.*.(.-XvX1.s.s.!.w.r.eX, O K.4Xd k. XqXx.k.J 8 [ K $ #           ",
"        # $ K A ZX* z.*.@X'.hXG.F.).).e.A.F.F.1Xa K.4XGXs x.x.x.x.[.DX8 JX@   $             ",
"          $   @ H ZX9X`.H.hXG.G.LXaX8XlXFXh.h.J z DXx.[.zXzXt.l.[.HX{ |.f   %               ",
"            %   u U kXD `.D.BXaX}.}.wX Xs ].].g.zXzXt.t.t.t.l.l.q - {.Y   $ #               ",
"              %   y gX4 a 8XfXwX X XqXqXx.x.g.g.l.t.t.t.l.j.k.7 - JXI   $ #                 ",
"                %   u 7 2X2XZ L ].k.k.k.g.g.g.g.[.j.l.j.[.q {.|.P f   $ #                   ",
"                  %   S b x gX{.h.Z s ].].j.j.l.g.qXd 7 {.t ] i @   $ #                     ",
"                    $     2 n A |.- 8 - VXjXjXjX|.|.VX{.! i S     $                         ",
"                      $ %       @ y Y F t t F C C W b c X     % $                           ",
"                          # %     # # 2 1 < 1 & X         % $                               ",
"                              # $ % $               % $ #                                   "
};
