/* XPM */
static char *_e3ddcd895184fd782620c7dee03cb89QUd7xMmBuVsd7kKN[] = {
/* columns rows colors chars-per-pixel */
"54 54 229 2 ",
"   c None",
".  c #181A05",
"X  c #1A0B08",
"o  c #240E00",
"O  c #2B1D02",
"+  c #291907",
"@  c #381B06",
"#  c #2E1716",
"$  c #361A12",
"%  c #2C2500",
"&  c #252300",
"*  c #382508",
"=  c #2E3805",
"-  c #373B00",
";  c #392715",
":  c #3B3416",
">  c #2D261E",
",  c #372C24",
"<  c #3E3025",
"1  c #431C07",
"2  c #4D240C",
"3  c #472809",
"4  c #562809",
"5  c #483604",
"6  c #533906",
"7  c #442613",
"8  c #442B16",
"9  c #482B13",
"0  c #462D1A",
"q  c #4B2E1B",
"w  c #482416",
"e  c #542B14",
"r  c #582B18",
"t  c #4C351D",
"y  c #46381A",
"u  c #54321D",
"i  c #5B341E",
"p  c #583417",
"a  c #64360C",
"s  c #612E12",
"d  c #6E3516",
"f  c #62331B",
"g  c #6B371A",
"h  c #693918",
"j  c #743612",
"k  c #7B3A15",
"l  c #743C1D",
"z  c #7A3D1A",
"x  c #763815",
"c  c #4A2C27",
"v  c #5C2E28",
"b  c #4D3524",
"n  c #4D3A2B",
"m  c #4A3825",
"M  c #553422",
"N  c #5B3421",
"B  c #563A24",
"V  c #5A3A24",
"C  c #54352C",
"Z  c #543D2C",
"A  c #5D3C2B",
"S  c #4D3D34",
"D  c #563D32",
"F  c #643B25",
"G  c #623D2A",
"H  c #693B25",
"J  c #783F22",
"K  c #384E00",
"L  c #57570B",
"P  c #464618",
"I  c #514A13",
"U  c #475318",
"Y  c #52470F",
"T  c #7E401D",
"R  c #58661B",
"E  c #62621B",
"W  c #4A432A",
"Q  c #5D4025",
"!  c #5D432C",
"~  c #594927",
"^  c #4B5923",
"/  c #4E4134",
"(  c #554233",
")  c #5A4334",
"_  c #59473B",
"`  c #585936",
"'  c #64422B",
"]  c #6A442D",
"[  c #684428",
"{  c #734224",
"}  c #7B4223",
"|  c #74442B",
" . c #7E4A2B",
".. c #78482B",
"X. c #644532",
"o. c #6B4533",
"O. c #644A34",
"+. c #6C4A34",
"@. c #644C3D",
"#. c #6A4C3C",
"$. c #7B4B33",
"%. c #764C37",
"&. c #6B543D",
"*. c #74523C",
"=. c #7A553D",
"-. c #7C5035",
";. c #5D6633",
":. c #5A6E22",
">. c #656938",
",. c #6D7634",
"<. c #5B4743",
"1. c #555546",
"2. c #595853",
"3. c #694D42",
"4. c #6C5442",
"5. c #6C5649",
"6. c #675647",
"7. c #735443",
"8. c #745B4C",
"9. c #7C5B4B",
"0. c #775745",
"q. c #6A5A58",
"w. c #735C54",
"e. c #76644B",
"r. c #707F46",
"t. c #7C6252",
"y. c #74665B",
"u. c #7A665A",
"i. c #716A51",
"p. c #786967",
"a. c #813E17",
"s. c #83421C",
"d. c #8B461D",
"f. c #8E491E",
"g. c #944C1C",
"h. c #924913",
"j. c #9E531A",
"k. c #844622",
"l. c #8C4621",
"z. c #8C4B23",
"x. c #844A29",
"c. c #864926",
"v. c #924C23",
"b. c #8D512F",
"n. c #95522A",
"m. c #995226",
"M. c #89553A",
"N. c #935836",
"B. c #814D38",
"V. c #815C4A",
"C. c #845C45",
"Z. c #855F54",
"A. c #85624D",
"S. c #8A644E",
"D. c #836453",
"F. c #846B5C",
"G. c #8C6D5A",
"H. c #896755",
"J. c #936E5B",
"K. c #8A745C",
"L. c #94725D",
"P. c #8D7465",
"I. c #897864",
"U. c #9A7664",
"Y. c #937864",
"T. c #967B6A",
"R. c #9B7E6A",
"E. c #977664",
"W. c #887B74",
"Q. c #A17C68",
"!. c #6E8537",
"~. c #7D953C",
"^. c #768B45",
"/. c #859847",
"(. c #919D5F",
"). c #88A644",
"_. c #8CB348",
"`. c #99BB55",
"'. c #90AD51",
"]. c #9C836C",
"[. c #99856A",
"{. c #8D8078",
"}. c #9C8373",
"|. c #9A8779",
" X c #A3826C",
".X c #A48B6F",
"XX c #A38A74",
"oX c #A88A77",
"OX c #AB947D",
"+X c #B0997A",
"@X c #A9B771",
"#X c #9DC259",
"$X c #A7CA66",
"%X c #9B8B85",
"&X c #98948C",
"*X c #A99386",
"=X c #B69582",
"-X c #B99885",
";X c #AA9B97",
":X c #AD9285",
">X c #B2A18C",
",X c #BAA595",
"<X c #B9A797",
"1X c #ACA091",
"2X c #A59FA2",
"3X c #BAAAAA",
"4X c #BEB9AC",
"5X c #C09988",
"6X c #C1A798",
"7X c #C8B7A9",
"8X c #CBBBB4",
"9X c #D1BEB7",
"0X c #CDB3A6",
"qX c #CEC1B9",
"wX c #D3C6B9",
"eX c #DDD1BC",
"rX c #D6C6AC",
"tX c #E1CCB1",
"yX c #DED4CC",
"uX c #D4C9C2",
"iX c #E5D5CA",
"pX c #E8DED2",
"aX c #E3CCC8",
"sX c #EEE9DD",
"dX c #F9E8DA",
"fX c #F9EEE6",
"gX c #FCF5EA",
"hX c #FFFAF4",
"jX c #FBF4F2",
/* pixels */
"                                                                                                            ",
"                                                                                                            ",
"                                                                                                            ",
"                                                                                                            ",
"                                                      fXfXhXjX                                              ",
"                                                sXyXgXgXpXpXsXiXsX                                          ",
"                                          eXrXeX7X>X7X<X>X<XrXeXqXpX                                        ",
"                                      9X7X>X[.].}.T.T.T.]..XK.[.XX,X<X                                      ",
"                                    *X|.[.OXXXoXoXR. XR. X.X[.+X-XT.}.}.                                    ",
"                                    }.XXXXY.*.V V i G u 9 u V +.C.Q. XT.:X                                  ",
"                                  :XT.K.F.8 B i 2 N G N A A b A 1 ] J.E.P.                                  ",
"                                I.7.R.T.K.q X.o.] H $.=.%.9.0.#.] | Q.U.F.n                                 ",
"                                4.Q D.G.O.A ] ] $.N.M.M.C.S.9.H.%.] H.A.8.)                                 ",
"                                4.' Y.oX0.X.] .. .c.z.N.k. .%.%.-.V U.U.7.) y.                              ",
"                                &.N Y.:XZ.u | J z.m.h.g.g.z.z  .=.u U.OX8.c y.                              ",
"                              qXO.o.U.=XV.N B.} d.g.h.j.h.m.z.b.-.+.*.Y.4.b 5.dX                            ",
"                            0XY.*.o.U.5XV.i $.} k.n.g.m.g.f.l.N. .f J. Xt.M O.+XgX                          ",
"                            Y.0.F u Q.-XH.e B...k.n.l.m.v.v.l.b.} [ J.-X#.M ' ' tX                          ",
"                          9XO.] +.i U.-XS.2 $.} c.n.f.m.l.l.k.c.{ F D.:X@.8 ' A.Y.,X                        ",
"                          7X&.*.G 7 G.-XA.e ..l c.n.l.n.d.k.s.x.{ ] oX>X5.q B ' 0.5.                        ",
"                          aX9.G V 7 L.-XS.2 ..} c.n.l.n.s.s.k.x.$.] t.3.) b V ] O.@.qX                      ",
"                          iXO.+.O.q H.=XV.e {  .k.v.f.n.a.s.k. .f u P.|.n + M F 0.D.uX                      ",
"                          fXA.' A 8 9.=XA.F h l k.z.f.v.k T } } | +.oX*X) ; u F o.#.wX                      ",
"                        <X6XL.' X.q H.oXS.p g } k.v.f.v.k z z l | i OX|.( 8 w G G 3.9X                      ",
"                      wXT.A.C.=.B $ D.R.V.2 g l c.l.d.l.a.k z l 4 H oXXX! * u N o.C 9XhX                    ",
"                      ,X#.] ] ' ' @ 7.XXA.2 f d c.z.d.f.k x z } s i  X].Z 7 q A A #.%XhX                    ",
"                      ,X' +.*.G V q 7.G.7.1 r g z k.d.l.k x z l s p  XY.q * 7 G M 0.6.3X                    ",
"                      ].' ] ] ' G q 7.9.' 2 F 4 d T s.s.x x z d r e L.H.0 0 8 q ' X.Z *XhX                  ",
"                  >X}.S.A.%.' ] B 7 7.#.X.@ 2 H l } k z j k z d e i S.A.0 ; 0 t Z A A :XgX                  ",
"                yX8.9.C.%.] =.B 9 @ Y.T.t.7 N ] g l x z j x x s 2 ] Q.oX3.$ : 0 8 O.o.D.gX                  ",
"                wX) ' [ | [ ] ' B * e.e.8.0 M G f h d z j j d s e G D.D.) o ; : t ! ] V.0XdX                ",
"                8XZ *.] ..] ' V t * 4.K.e.8 t 9 p h a h a a d h 9 ! K.D.@.$ : m Z V ] *.H.6XwX              ",
"                8X_ @.#.+.=.' Q : & P >.>.% y y 3 6 5 6 5 5 4 p * ~ I.8.W ; : b t O.X.#.4.u._ {.            ",
"                  S _ ( B u ' 9 y : U U U U 5 I I >.E L L L Y Y I I ;.` W * t ! #.X.@.D <.S 6.8X            ",
"                      }.) b B t i.>.^ ,.!.^././.@X/.`.#X_.).'.~.~.!.!.;.` &.t ! M w C W.%XuX                ",
"                          F.P.7.W . ^ r.^.@X(.,.R K $X#X_.$X`.:.).~.^.= = : b 9.9.F.aX                      ",
"                          _ 3.n $ n y + : i.y % % % = - U R >.& E - >.P + + Z D c |.                        ",
"                          < n # #   y.+ + X @ ! ! * O * O O o 9 3 O t : |.W._ ( 7X                          ",
"                                      , < + C M G @ 3 Q @ 2 1 r r $ C <.      4X                            ",
"                                X     , , # 3.F.o.1 u ' 1 e f r v c # 3X      1.. &X                        ",
"                                        2.> y.u.u.F.( n o + C 7 # q.2X                                      ",
"                                          W.{._ _ W.{.qX*Xp.w.w.y.                                          ",
"                                          y.1XI.3.;Xp.&X;X3X8X7X                                            ",
"                                          1./ ( q.S W.q.p.p.S ( : ` 1.                                      ",
"                                            , / 6.          u.I.O.F.                                        ",
"                                                                }.%X                                        ",
"                                                                                                            ",
"                                                                                                            ",
"                                                                                                            ",
"                                                                                                            ",
"                                                                                                            ",
"                                                                                                            ",
"                                                                                                            ",
"                                                                                                            "
};
