/* XPM */
static char *_6f72e0faa414de4e219c784cf01fb13selR0BhrAHi246Lk[] = {
/* columns rows colors chars-per-pixel */
"54 54 128 2 ",
"   c #246000",
".  c #2A6606",
"X  c #2C6806",
"o  c #2E6A0A",
"O  c #326E0D",
"+  c #35710E",
"@  c #39750F",
"#  c #346F11",
"$  c #367212",
"%  c #3A7514",
"&  c #3D7916",
"*  c #3C7619",
"=  c #3E7A19",
"-  c #407C16",
";  c #427D1C",
":  c #437E21",
">  c #438019",
",  c #448119",
"<  c #44811A",
"1  c #46801A",
"2  c #47811B",
"3  c #45821A",
"4  c #45821B",
"5  c #44801C",
"6  c #45811D",
"7  c #46801C",
"8  c #47811D",
"9  c #46831C",
"0  c #44801E",
"q  c #45811F",
"w  c #47801F",
"e  c #46821E",
"r  c #47831F",
"t  c #47841D",
"y  c #45811E",
"u  c #48821C",
"i  c #49831D",
"p  c #48821E",
"a  c #49831F",
"s  c #48851D",
"d  c #48851E",
"f  c #4B851F",
"g  c #49861F",
"h  c #4A871F",
"j  c #49841E",
"k  c #448020",
"l  c #458121",
"z  c #478021",
"x  c #468220",
"c  c #478321",
"v  c #458022",
"b  c #468123",
"n  c #468222",
"m  c #478323",
"M  c #478224",
"N  c #468221",
"B  c #488120",
"V  c #498221",
"C  c #4A8322",
"Z  c #488420",
"A  c #498521",
"S  c #4B8521",
"D  c #488422",
"F  c #498523",
"G  c #4B8423",
"H  c #4A8622",
"J  c #4B8723",
"K  c #4D8720",
"L  c #4C8622",
"P  c #4A8324",
"I  c #488424",
"U  c #498525",
"Y  c #4A8624",
"T  c #4B8725",
"R  c #498426",
"E  c #4A8527",
"W  c #4A8626",
"Q  c #4B8727",
"!  c #4C8524",
"~  c #4C8526",
"^  c #4E8726",
"/  c #4A8523",
"(  c #4B8820",
")  c #4B8821",
"_  c #4C8922",
"`  c #4D8A23",
"'  c #4C8824",
"]  c #4D8925",
"[  c #4E8824",
"{  c #4F8925",
"}  c #4C8826",
"|  c #4D8927",
" . c #4E8A26",
".. c #4F8B27",
"X. c #4F8C25",
"o. c #4E8A25",
"O. c #4C8828",
"+. c #4D8929",
"@. c #4E8A28",
"#. c #4F8B29",
"$. c #4D882A",
"%. c #4E8A2A",
"&. c #4F8B2B",
"*. c #4E8A29",
"=. c #508A24",
"-. c #508D25",
";. c #508D26",
":. c #508A26",
">. c #508928",
",. c #518A29",
"<. c #508C28",
"1. c #518D29",
"2. c #538D29",
"3. c #528F28",
"4. c #508C2A",
"5. c #518D2B",
"6. c #528E2A",
"7. c #528E2C",
"8. c #528E2E",
"9. c #508C29",
"0. c #559026",
"q. c #539028",
"w. c #539029",
"e. c #55912F",
"r. c #56922E",
"t. c #57932F",
"y. c #59972C",
"u. c #5B9735",
/* pixels */
"] % ; = Y Y % = & = : ; & 6 x # H H % $ % Y x % = 6 = 6 ] = $ = ; ; + $ 7.+ ; -.; = $ 6 ; = = = = ; x = = ( ",
"6 = = ; % ; O x 6 ; # ; & % = $ $ ; ; x % x = % ; 6 6 6 ; = % = H & ; = % ; H & ; ; x % + x & & & % $ ; 6 e.",
"+ % Y % ; x ; % @ ; ; = 6 & Y = & = = ; % ; = * Q ; 6 = O = % ; ; ] x % O = ; + ; = = x ; = ; H y.h & ; % ; ",
"Y % ; + 6 ; x ; w.; % ; ; ] ; = 6 = ; % $ O ; x # O = & & ; ; = + Y Y $ $ : $ x % % $ x 6 % ; H t & ; 6 ; ; ",
"x Y & ] O ] $ = X.= Y = % % ; * ] & % % = = x = % = = % x = = O % H = x * # x = % = H % $ 6 ; ; % % = = ; 6 ",
"= 6 H + O 6 Y % - 6 ; x % 6 x # 6 6 ; Y $ % = = = = $ % H ; M ; ; = = ; $ % ; $ ; ; Y 6 ; ; ; = * M ; ; & -.",
"O & & ` & Y = % 6 ; : ; ; $ = x ; ; = x $ : ; % ; = = H 6 ; ; = $ = $ & & & x ; 6 & & H Y O & ; % Y ; ; % = ",
"; 6 H t % ; ; % & = = % 6 H O * + % = x % x Y = ; $ & ] & 6 ; x ; = x x % ; = x 4.< 6 & & & = x < ( & % ; = ",
"% 6 ; & ] ; ; & % 6 % ; = ; ; & % # : $ = & & ; ; ; ; h w.; = $ % ; & % ; ; x & & ; - & = ; = % 6 ; ; * $ ; ",
"H 6 % ; ; 4.H + = ] $ $ % % = Y 6 % % = ; ] ; 6 = % % ; & ; x = ; 6 % x ; = ; $ - & ; = Y ;   * & 6 ; Y % Y ",
"; 6 = = ; ; % ; & H % % = % % ; 6 = Y x ; & - ; O x % ; x 6 $ % ] x $ Y = % ; $ & V H % % ; x = > 6 x = ; % ",
"= = = % x = $ : ; ; % x ; ; ; = H ; ; ] & ` 6 x ; ; $ # $ ; 6 t 6 % % = = % Y H ; ] 6 = % % ; = > H % % $ % ",
"= = Y ; x Y x * = % % x ; x ; = 6 = $ = + h ; % = = = $ = ; ; & ; % = $ ; ; ; H ; X = 6 O % ; x + 6 = = ; x ",
"o % ; ; $ $ O % $ = % = = * $ * 6 ; x 6 & ; ; = ; 6 ; $ x = $ ; = % = % = Y + & ; ] 6 % & % $ * x ] 7.; 6 % ",
"= ; $ = x & + Y ; : = & % % $ ; & = $ Y ; H & * 6 % ; 6 = = ; ; & $ = = = H & ; % x = H H & V % = = = = % & ",
"M = $ = x & ] ] * $ = H = ; * # x = % ; 6 & = = 6 ; < t & % O ; x % x ; % % 6 6 % % % % % ; H 6 ; O = = H 6 ",
"= ; ; % ; ; H H x % $ ] ; H = % < ; & H L - ; - ; x ; ; = ; x $ ; = & ; & ; % = + ; $ * ; $ = ; < % ; ; $ * ",
"= x ; x ; % 4.$ ; ; H ; x x ; = ; & ; ; $ % ; - = $ $ = 6 ; x = % % 6 H ; ] % O x ; % ; ; = % 4.- ; V ; % - ",
"] % = H = + & O % = % $ % ; O ; % % $ - ; 6 ; - ; Q x % Y ; $ $ = = ] ; % Y = % % 6 = O % $ ; ; x ! % - a 0.",
"= % = = ; 6 ; & ; = x = ] Y = x = ; = x ; $ ; 6 = O ; x H = = x = $ ; + = 6 = % ; ; % = $.= x % O ; % a a L ",
"$ ; ; H 6 6 $.; % % Y ; 6 ] = $ x $ = ; x = ; $ = ; x % & = % % ; ; 6 & ] = H 4.& & % 6 ; H % & >.a O - - L ",
"6 = 6 Y $ $ 6 6 % % 6 Y + 6 % % $ & Y O = ; $ ; Y $ & 6 & & 6 ; ; 6 ; = H + ; ] = 6 6 6 = H ; ; 6 - % V % - ",
"6 % 6 & X ; ; ; x $ H ; = + ; ; ; ] ; O % = % ; % x & & ; ] ] H 6 = % x H x ; @ x & % ; ] = 6 % V - - - - H ",
"H 6 % 6 H x = ; = = H 6 6 ; ; % % < ; u.% $ $.O $ x & 6 ; H 6 ; ; % % x O x 6 ; $ % H 6 & & % = % - P - - < ",
"; ] x ; ; = ; M $ : = ; H = % = % a h < ` + x $ H H H ; O Y ; $ ; H & ; x + & ` 6 = 6 ; + ; % ; & ; $.= % 6 ",
"; 6 % $ % = % O = ; O ; 6 H % = - 4.=.( 6 ; Y = ` ] % % % 6 ] x + ; x % 6 % ; h % = e.; & % % ; ; % ; ; 6 H ",
"O = = = % % ; x ; ] ; 6 ; H ; * % >.6 @ @ H Y $ & & & % 6 = X 6 = % $ = ; x & ; % & 6 & ; 4.= % ; $ ; ; ; = ",
"= % % ; ; ; 6 6 ; % % 6 ] ; = % x = = ; 6 6 & & ( < H $.x = Y ; ; % = = ; % ; 6 ; 6 ; = & $.= = $ $ ; % % $ ",
"% ; ; x ; & ; ; H ; 6 6 6 % % O % $ ; ] ] 6 ; H 6 4.6 % ; = ; o = = = ; 6 O ; ; ; 6 x % % & = Y ; ; H = = = ",
"% ; ; ; 6 H 6 % % Y Y = % x $.x $ = & = % ] V 6 H ; = O % = = % $ $.; = % H ] O ; ; ; 6 = = % ; & % = x x H ",
"$ x Y ; & % ; ; ; ; % % = ; 6 ; ] x % ; = ; - ; O = O ; $.* x ; ; % 6 6 ] + ; x 6 6 ; $.% = O % ; = % 6 & % ",
"; ; % & ; = ; Y % % = % ; % = % ; & ; x ] ; V 6 : * % * # % x O ; ; & & < H ; = 4.; % = = x ; ; ; = + ; % ; ",
"x = ; = $ ; = 6 ; % x = ; ; % 6 + % ; ; ; Y = = ; % 6 H 4.= ] % # % % % + ; 6 ; % x 6 x $ % 4.% @ V ; : : $ ",
"% ; H 6 o % % 6 = = $ x $ x 6 = ] ; x % $ = ; = $ 6 H % 6 = H = ; ; = 6 ; ; ; H H ; = % ; & x 6 ! ; = % * = ",
"x 6 ; H % : + % ; x % = $ % H ; ; ; ; ; & % ] 6 x % ; ; 6 % ; % & Y Y % % x % % & ; 6 % ; $ ; 4.; % - % * V ",
"; > < H ; $.; & $ % x $ ] $ % ; = ; Y 4.6 H H 6 Y & 6 & $ = H % & H ] & = ; $ = & x % = x $ % & = 6 Y - % a ",
"% 6 ( - ; Y 6 & $ & % & Y 6 % = # x O ; ; % ; % % ; 6 % % ; ; ; & & 6 = ; = $ x ; = O = ; % = 6 = ; ; % % ] ",
"Y ; - & 6 = & % H Y & ; % ; x % $ ; ; + ; & = 6 ; % % x x % % H 6 ; Y Y H ; = Y ; ; $.= = % 6 ] x ; H % - ] ",
"* = & 6 x % & H H 6 x 6 = ; 6 O % Y 6 & ; % ; = ] ; $ ; % % ; 6 ] $ = Y x $ & 6 6 Y e.= ; 6 ; & $ = x = ; ! ",
"o = ; 6 ; ; ; ; ; % % % ; 4.& = = ; & - ; Y x $ % Y = x x & % ; = % ; = % = ] % + ; & = x x ; ; + Y ; % - - ",
"$ 6 ; ] ; = $ ; Y % & Y 6 6 x + % H = ; ; ; ; = ; ; = ; H % x $ = % % x x Y $ : 6 % % x = 6 $ ; < - & % $ * ",
"= x = H x 6 = * = ; = $ % 6 $.% H ; & ; ; = % = H ; + & ] ; ; 6 = 6 ; ; $ $ = ; 6 = & ; x % ; ; & ] & O x Y ",
"% % 6 H + $ x * $ ; & & x & ; & & = Y % o Y ; % 6 x x ; % & ; = Y % = ; ; ; ; = 6 6 ; & H & H x ] & = ; % = ",
"H $.6 % ; = & = ; Y = % ; + ; ; % x x & % $.$ x Y $ ; x = ; ; = ; = $ Y x O = = & ; ; % % ; & = H = = x x ; ",
"6 H H = 6 & ; Y ; ; % % ; & Y ] H & % ; & ; % = Y & ; = ] 6 = x = ; ; x = ; = 7.; H x 6 & x = = = ; $ o = Y ",
"; . % ; % = Y & = % & x x ; = % x = = $ % % x = ; = H ; H = * * $ = o 6 6 = % ; $ ; & ; & & H % O % ; ; % = ",
"= % : ; % $ % ; O = = % % $.H ; & $.; $ Y = $ $.; o + 6 ] = $ * x = ; H 6 ; + & % = & ; ; & 4.= = x H ; = % ",
"x % = = = ; ; 6 Y ] 6 ; % x % 6 % ; = x % ; O % = ; % ; H = O : $.; ; $ % H 4.H ; & = ; % = x & ; H ; % ; x ",
"6 = = x % $ Y % & ] ; x * = % ] 6 ; $ $ % # ; O 6 ] = x ; X.- 6 H & $ = x ; - ; = % ; - - $ x * ; % ; 6 % $ ",
"H H = * % * ; $ x 6 O ; ; O 6 > ; ; % ; x ; x $ ; ; % ; x % ; 6 - H = % = x % $ % Y ; % V % $ ; ; 6 4.Y = = ",
"x H % O * = = H Y & ; ; * % 4.t 6 x = x x ; x & ; % ; ; x O & & % V = ; ; x = V x = 6 H * = ; - ; % ; x = $ ",
"$ = % ; M ; $ =.x & 6 ; O % ; % = ; % = % $ = = x % Y ; = ; % % H ; % ; * $ $ a 6 ; 6 6 = = ; 6 & % = $ $ ; ",
"$ = ; Y ; - % h = = % 4.x x 4.` % % % = = % ; 6 x & H = $ M : 6 ; $ = % $ % L H 6 6 6 $ x = % x = % x x ; o ",
"* = = ; $ ; a L % = 6 ` H ; h h x = = ; x ; ] X.; ; < 6 * * Y ( ] - x = % % ! - L & x = = = x 6 ; ; H % = = "
};
