/* XPM */
static char *e20735b265f14f978d1872e3e27c906a[] = {
/* columns rows colors chars-per-pixel */
"54 54 151 2 ",
"   c None",
".  c black",
"X  c #010000",
"o  c #040101",
"O  c #070405",
"+  c #070506",
"@  c #070507",
"#  c #080405",
"$  c #090607",
"%  c #0F0606",
"&  c #050B0F",
"*  c #110607",
"=  c #110707",
"-  c #120707",
";  c #140707",
":  c #170907",
">  c #180906",
",  c #180907",
"<  c #190907",
"1  c #1D0708",
"2  c #150909",
"3  c #150C0E",
"4  c #150D0E",
"5  c #140D0F",
"6  c #170D0F",
"7  c #190908",
"8  c #1A0908",
"9  c #1B0A08",
"0  c #1F0809",
"q  c #1D0A08",
"w  c #1A0B0C",
"e  c #1A0C0C",
"r  c #1D0F0D",
"t  c #070D11",
"y  c #060D12",
"u  c #090D12",
"i  c #180E10",
"p  c #1D0D10",
"a  c #071219",
"s  c #081219",
"d  c #081319",
"f  c #08131A",
"g  c #131015",
"h  c #171114",
"j  c #141117",
"k  c #1F191B",
"l  c #200709",
"z  c #330E0E",
"x  c #23110C",
"c  c #26120D",
"v  c #36100F",
"b  c #200E13",
"n  c #200F13",
"m  c #220F13",
"M  c #210C17",
"N  c #250D1A",
"B  c #330613",
"V  c #360614",
"C  c #370614",
"Z  c #3D0616",
"A  c #291317",
"S  c #2D1217",
"D  c #2F1318",
"F  c #2C1419",
"G  c #2E1919",
"H  c #3B1210",
"J  c #301319",
"K  c #34151B",
"L  c #37171C",
"P  c #34191E",
"I  c #341D1F",
"U  c #361D1E",
"Y  c #351E1E",
"T  c #3A181D",
"R  c #3E1A1F",
"E  c #0A1924",
"W  c #0A1C27",
"Q  c #111821",
"!  c #131820",
"~  c #121922",
"^  c #221F27",
"/  c #371C21",
"(  c #3A2021",
")  c #3F2324",
"_  c #362925",
"`  c #382827",
"'  c #440A14",
"]  c #4D0A15",
"[  c #400B1A",
"{  c #420B1C",
"}  c #460C1E",
"|  c #4F0B1E",
" . c #530B1F",
".. c #481513",
"X. c #5F371E",
"o. c #550C20",
"O. c #451C24",
"+. c #591722",
"@. c #5F192B",
"#. c #69102C",
"$. c #7F1625",
"%. c #7E0D32",
"&. c #412127",
"*. c #4C2128",
"=. c #422F2B",
"-. c #52262A",
";. c #56282C",
":. c #4A312B",
">. c #5C2F33",
",. c #543937",
"<. c #573E39",
"1. c #69212B",
"2. c #663B20",
"3. c #643138",
"4. c #69363C",
"5. c #5F413E",
"6. c #724226",
"7. c #753E43",
"8. c #6A4945",
"9. c #7A4147",
"0. c #7F5349",
"q. c #8F1A2C",
"w. c #850A34",
"e. c #8E0A37",
"r. c #950C37",
"t. c #9A0D37",
"y. c #A21334",
"u. c #AF1A34",
"i. c #B61736",
"p. c #BD1838",
"a. c #802432",
"s. c #C41B38",
"d. c #C81B38",
"f. c #CA1C38",
"g. c #CC1C39",
"h. c #CD1D39",
"j. c #CE1D39",
"k. c #D11D39",
"l. c #844E37",
"z. c #A3374B",
"x. c #B05E57",
"c. c #85625B",
"v. c #9F6153",
"b. c #AB6A5C",
"n. c #A5756B",
"m. c #B97365",
"M. c #B2786B",
"N. c #BF7C6E",
"B. c #B58378",
"V. c #C28376",
"C. c #C48D81",
/* pixels */
"                                                                                                            ",
"                                                                                                            ",
"                                                                r                                           ",
"                                                            X.6.6.6.6.X.                                    ",
"                                                          X.6.6.6.2.2.2.X.                                  ",
"                                                          2.2.2.2.2.6.v.X.                                  ",
"                                                          2.2.2._ <.0._                                     ",
"                                                      u i X.2.l.0.c.n.<.                                    ",
"                                                    f E j X.l.M.V.C.C.v.                                    ",
"                                                  a W E j :.0.B.C.C.V.v.                                    ",
"                                                  f W W E f f c.C.V.m.0.                                    ",
"                                              ~ E W W W W W W ~ 8.m.0.g                                     ",
"                                          y.y.%.^ W W W W W W E ^ ^ k y                                     ",
"                                        y.j.j.p.%.F f f f W W W f y y y                                     ",
"                                      ' k.j.j.k.y.#.F y y f f f f y y #                                     ",
"                                      $.k.j.j.p.t.t.%.N y y y y y y i Z                                     ",
"                                    o.y.u.j.p.r.r.i.p.%.N y y y y j +.u.                                    ",
"                                    ^ ^ &.u.r.r.p.j.j.p.%.N j j j } t.d.i.                                  ",
"                                  0.M.8.~ F w.p.j.j.j.j.p.w.%.%.%.w.e.t.i.                                  ",
"                                  c.C.M.8.j w.s.j.j.j.j.j.p.r.e.e.e.#.N Y                                   ",
"                                5.B.C.N.x.q.i.f.j.j.j.j.j.j.t.e.e.#.N j 8.                                  ",
"                                n.C.N.v.a.j.k.j.j.j.j.j.j.j.t.e.e.a.<.8.b.,.                                ",
"                              6 n.N.v.:.z f.j.j.j.j.j.j.j.i.r.e.e.z.m.m.N.C.                                ",
"                              ~ 0.m.>.% o.f.j.j.j.j.j.j.s.r.e.e.%.a.v.m.C.C.`                               ",
"                            ~ W f 0.:.] d.j.j.j.j.j.j.j.p.r.e.e.[     b.m.C.C.=.                            ",
"                            W W f i # ] j.j.j.j.j.f.j.p.r.e.e.e.B       b.m.C.8.                            ",
"                          ~ W f + . . c 1.1.1.1.1.+.#.t.e.e.e.e.B         v.<.^ E                           ",
"                          W W y + . . 6 ) ) ) ) Y F H o.o.@.@.+.          ( k f W f                         ",
"                        j :.f y + o . z a.a.a.a.$...c c F R &.A               f E E &                       ",
"                        p 8._ j F ; . ] k.k.k.k.k.q.+.+.+.+.@.} V             + f E f                       ",
"                            7.6 ;.w . ] p.j.j.j.j.j.j.j.s.t.e.e.e.|           6 j j j                       ",
"                                      w 1.s.s.d.f.j.j.j.j.s.r.e.e.o.          L R K >.                      ",
"                                      b 4.@.@.e.r.i.j.j.j.f.t.e.e.w. .                                      ",
"                                      b 7.3.*.+.@.%.y.y.y.y.e.e.e.e.#.                                      ",
"                                      >.9.7.3.*.O.} V V { #.#.#.#.#.}                                       ",
"                                    P 9.9.7.3.*.J         b O.;.>.>.&.                                      ",
"                                    Y 9.9.7.*.O.            R 3.7.9.>.                                      ",
"                                    Y 9.7.4.*.R             S O.3.9.>.                                      ",
"                                    / 9.4.*.O.                K 3.9.7.>.                                    ",
"                                  G 7.9.4.*.O.                D *.3.9.4.                                    ",
"                                  -.9.4.;.O.                    K >.9.4.                                    ",
"                                  T >.;.R 2                     M >.9.4.                                    ",
"                                  z ....F                       e *.3.;.                                    ",
"                                  H ..H ,                         z ..H                                     ",
"                                v ..H c :                         z ..H                                     ",
"                                H ..H 9                           z ..H                                     ",
"                                H ..H -                           x H H                                     ",
"                                H H z                             - z H                                     ",
"                              1 ..z q                               z ..q                                   ",
"                              H H z %                               z H H                                   ",
"                              - , ,                                 l 9 9 ,                                 ",
"                                                                                                            ",
"                                                                                                            ",
"                                                                                                            "
};
