/* XPM */
static char *_73d4943570b462891a1e61c847a75d1V1vc0yghbYsLzHwY[] = {
/* columns rows colors chars-per-pixel */
"54 54 17 1 ",
"  c #836245",
". c #744E2E",
"X c #89694E",
"o c #683F1C",
"O c #8F7156",
"+ c #7E5C3E",
"@ c #704927",
"# c #6B4321",
"$ c #9D826B",
"% c #93765C",
"& c #9A7F67",
"* c #977A62",
"= c #795535",
"- c #A28872",
"; c #A78F7B",
": c #623A17",
"> c #AE9884",
/* pixels */
"O+    +X-+     +;X+    +&*+    +X-+     +; +    +$%+  ",
" #@@@@@=&#.@@@@#$=@@@@.#OX#.@@@@+&#.@@@@@$.@@@@.#% #@@",
"-$$-;&$-;$$$>$$$;-$&>-$$;;$$;;&$-;$$$>$$$;$$$>-$$;-$$-",
"##o+%o@#o##@&###o#@o%=o###@o Oo@#o##@&###o#@o*=o#####=",
"XOX*-XXXOXXX;XXXOXXX;%XXOOXX&-XXXOXXO;XXXOXXX;%XXOOXX%",
"O++++++X-=++++++; +++++=&%=+++++X-=++++++; +++++=$%=++",
"X.=..=.+$.=...=.-+.=..=@%O@=..=. $@=..==.-=.=..=@*X@=.",
"$&&->*&$-&&$>&&&-$$&>-&&--&&;>*&$-&&$>&$&-$$&>-&&--&&-",
"oo:+O:oo:oo#*ooo:oo:%=:oooo:+X:oo:oo#*:oo:oo:%.:ooooo.",
"&*%->%*&$**&>***$**%>-**&&*%-;%*&$**&>***$**%>$**&&**$",
"X=++=+= -=++=++=- =+=++=&%=+=++=X-=++=++=;+++=++=&O=++",
"X====== -.======-+====+.*%.===== -.======-+====+.&O.==",
"&**->%&&$**&>*&*$&&%>-**$&**-;%&&$**&>*&*$&&*>$**$&**$",
"o#:+O:#oooo#&ooooo#:%=:#oo#:+X:#oo#o@*o#ooo#:%.o#oo#o.",
"*%O$;O%%&%%%;%%%$%%O;&%%&*%O$-O%*&%%%;%%%$%%O;&%%&*%%&",
" @..@.@+$@..@..@$=..@..#%X@..@.@+&@..@..@$=..@..#%X@..",
"%      X;+     +;X     +$&+     O;+      ;X     +-*+  ",
"%%O$;O%%%%%%>%%%%%%O>&O%%%%O-;O%%%%%%>O%%%%%O>&O%%%%O&",
"o#:+O:#oo#o#&o##o##:%=o#oo#: O:#oo#o@&o##o##:%.o#oo#o=",
"-$$;>&$-;$$$>$$$;$$&>-$$;-$$;;&$-;$$$>$$$;$$&>-$$;-$$-",
"+#@@#@#=&#@@#@@#$.@@#@@oOX#@@@@#=&#@@#@@#$.@@#@@o% #@@",
"*XXXXXXO; XXXXX >OXXXXX -$ XXXXX%; XXXXXX>XXXXXX -& XX",
"OOX&;XOOOOOO>OOOOOOX;*XOOOOX$;XOOOOOO>XOOOOOX>*XOOOOX*",
"#@o+%o@##@#@&#@@##@o*+#@##@o Oo@##@#.&#@@##@o*=#@##@#=",
"$%%&-%%&;%**-%*%;**%-&%%-$%%$-%%&;%**-%*%;**%-&%%-$%%&",
"+o##o#o.*o##o##o&@o#o##:X :#oo#o=*:##o##o&@##o##:O o##",
"$O%%%%O*>O%%%%%O>*O%%%%O;-O%%%%O&>O%%%%%O>%%%%%%O;-O%%",
"  +%-+      ;      +;O     +*-+     X;      +;O      O",
"..@ *@..@...-...@..@& @....@X%@..@..=-@..@..@$+@....@+",
"-&&--&&->&$$;$$&>$$&--$&;;&&--&&->&$$;$$&>$$&;$$&>;&$$",
"=:ooooo.*:#oooo:*@oooo#:X :#ooo:.%:#ooooo*#oooo#:X+:oo",
"-%**&*%&>%**&**%>&%*&**%;;%**&*%$>%**&**%>***&**%;-%**",
"++=O$=++++++;++++++=-X+++++=%$=+++++ ;++++++=-X++++++X",
"==.X&@==.===-===.==.$ .=..=.X*@==.===-.==.==.$ .=.==. ",
"&OO%*OO*;O%O*OOO;%OO*%OO-$OO%*OO*;O%%*OOO;%OO*%OO-$OO%",
"=o#oo#o.*:#ooo#:*@o#oo#:X :#oo#o.%:#oo##o*#o#oo#:O+:#o",
"-&&$-&&->&&&-&&&>$&&-$&*;;*&$-&&->*&&-&&&>$&&-$&*>;&&$",
".=@X*@=....=-.....=@& .=..=@X*@=....=-.....=@$+......+",
"  +%-+  +   ;+  +  +-O+ ++ +%$+  + + ;+  +  +;X+ +  +X",
"$%%%*%%&>O%%*%%%>*%%*%%O;-O%**%%&>O%%*%%%>*%%*%%O;-O%%",
"=o#oo#o.*:#ooo#:*@o#oo#:X :#oo#o.%:#ooo#o*#o#oo#:O+:#o",
"-$$-;$$->&$$;$$$>-$$;-$&;;&$-;$$->&$$;$$$>$$$;-$&>;&$-",
"@.@ *#.@@.@.$@..@..#&+@.@@.#X%#.@@.@.$@..@..#&+@.@@.@+",
"  +%-+      ;      +-O+    +*$+     X;      +;O      O",
"% XXXX O; XXXXX ;X XXXX $& XXXX O; XXXXX ;XXXXXX -* XX",
"+#@@#@#=&#@@#@@#&.@@#@@oOXo@@#@#=&o@@#@@#$.@@#@@o% #@@",
"-$$;;$$-;$$$>$$$;-$$>-$$;;$$;;$$-;$$->$$$>$$$>-$$;-$$-",
"##o+O:##o###&###o##:%=o#oo#o O:##o##@&o##o##:*=o#o##o=",
"OOO$;XOO%OO%>OOO%OOX>&OOO%OO$;XOOOOO%>OOO%OOX>*OO%OOO*",
"% X  X O; X   X ;X X XX -& XXXXX%> X   X ;X X  X+-* X ",
" @.@@.@=$#..@..@$=@@o#@oX o@:::::+:.@@..@$.@.@@.#%X#.@",
"-$&;>&$$;&$$>$$$;$$%X+==+X++ +#:@: $$>&$$;$$&>-$&--$$-",
"o#o+O:##o###&o##o##:%=o####: O:#@@#o@&o##o##:%.o#oo#o=",
"OOO$;XOO%OO%>OOO%OOX;&OOO%OO$;XOOOOO%>OOO%OOX>*OO%%OO*"
};
